<svg xmlns="http://www.w3.org/2000/svg" xmlns:xlink="http://www.w3.org/1999/xlink" width="2000" zoomAndPan="magnify" viewBox="0 0 1500 1499.999933" height="2000" preserveAspectRatio="xMidYMid meet" version="1.0"><defs><clipPath id="688301fbb7"><path d="M 919 334.628906 L 1119.625 334.628906 L 1119.625 519 L 919 519 Z M 919 334.628906 " clip-rule="nonzero"/></clipPath><clipPath id="52a59e5c9d"><path d="M 508 1020 L 539 1020 L 539 1050.128906 L 508 1050.128906 Z M 508 1020 " clip-rule="nonzero"/></clipPath></defs><g clip-path="url(#688301fbb7)"><path fill="#01012d" d="M 952.414062 463.824219 L 1018.023438 407.339844 L 927.734375 363.132812 C 924.507812 359.699219 925.117188 357.3125 929.332031 355.714844 C 942.5 357.140625 955.871094 358.621094 969.214844 360.601562 C 985.816406 336.839844 989.390625 338.960938 991.6875 340.242188 C 995.582031 342.566406 994.828125 344.574219 982.269531 362.402344 C 992.792969 363.972656 1003.257812 365.660156 1013.578125 367.4375 C 1029.855469 344.167969 1033.402344 346.289062 1035.671875 347.65625 C 1039.59375 349.957031 1038.839844 351.992188 1026.339844 369.734375 C 1036.222656 371.535156 1045.933594 373.457031 1055.410156 375.550781 L 1055.640625 375.839844 L 1101.921875 336.894531 C 1118.722656 331.078125 1121.511719 337.101562 1117.996094 351.4375 L 1070.875 393.410156 C 1072.8125 403.742188 1074.496094 414.292969 1075.933594 425.054688 C 1092.9375 413.070312 1094.914062 412.402344 1097.210938 416.328125 C 1098.546875 418.597656 1100.613281 422.144531 1077.617188 438.316406 C 1078.898438 449.039062 1079.980469 459.886719 1080.875 470.863281 C 1100.148438 457.25 1102.210938 456.320312 1104.59375 460.363281 C 1105.992188 462.71875 1108.199219 466.441406 1081.890625 484.503906 C 1082.558594 494.945312 1083.054688 505.476562 1083.375 516.003906 C 1082.328125 518.59375 1080.613281 519.203125 1078.023438 517.226562 L 1035.175781 425.34375 L 969.214844 484.125 L 973.488281 506.464844 L 960.378906 516.585938 C 960.25 515.1875 960.066406 513.796875 959.832031 512.410156 C 959.59375 511.027344 959.304688 509.652344 958.960938 508.289062 C 958.617188 506.929688 958.222656 505.582031 957.777344 504.25 C 957.332031 502.917969 956.832031 501.605469 956.285156 500.3125 C 955.734375 499.019531 955.136719 497.75 954.492188 496.503906 C 953.84375 495.257812 953.152344 494.035156 952.410156 492.84375 C 951.667969 491.648438 950.882812 490.488281 950.050781 489.355469 C 949.222656 488.222656 948.347656 487.125 947.429688 486.058594 C 946.515625 484.996094 945.558594 483.96875 944.5625 482.976562 C 943.570312 481.988281 942.535156 481.035156 941.46875 480.125 C 940.398438 479.214844 939.296875 478.347656 938.160156 477.523438 C 937.023438 476.695312 935.859375 475.917969 934.660156 475.183594 C 933.464844 474.445312 932.242188 473.757812 930.992188 473.117188 C 929.742188 472.480469 928.46875 471.886719 927.175781 471.347656 C 925.878906 470.804688 924.566406 470.3125 923.230469 469.875 C 921.898438 469.433594 920.550781 469.046875 919.1875 468.710938 L 928.488281 456 Z M 952.414062 463.824219 " fill-opacity="1" fill-rule="evenodd"/></g><path fill="#01012d" d="M 555.144531 1010.773438 C 555.292969 1010.5 555.46875 1010.242188 555.671875 1010 C 555.871094 1009.761719 556.097656 1009.542969 556.339844 1009.34375 C 556.585938 1009.148438 556.847656 1008.980469 557.125 1008.835938 C 557.40625 1008.691406 557.695312 1008.574219 557.996094 1008.488281 C 558.296875 1008.402344 558.605469 1008.347656 558.917969 1008.320312 C 559.230469 1008.292969 559.542969 1008.300781 559.855469 1008.335938 C 560.164062 1008.371094 560.46875 1008.441406 560.769531 1008.535156 C 561.066406 1008.632812 561.351562 1008.757812 561.625 1008.914062 C 561.898438 1009.066406 562.15625 1009.246094 562.394531 1009.453125 C 562.632812 1009.65625 562.847656 1009.882812 563.039062 1010.128906 C 563.234375 1010.375 563.402344 1010.640625 563.542969 1010.917969 C 563.6875 1011.199219 563.800781 1011.492188 563.886719 1011.792969 C 563.96875 1012.09375 564.023438 1012.402344 564.050781 1012.714844 C 564.074219 1013.027344 564.066406 1013.339844 564.03125 1013.652344 C 563.996094 1013.964844 563.929688 1014.269531 563.832031 1014.570312 C 563.734375 1014.867188 563.609375 1015.152344 563.457031 1015.429688 L 561.160156 1019.617188 C 561.011719 1019.890625 560.835938 1020.148438 560.636719 1020.390625 C 560.433594 1020.628906 560.210938 1020.847656 559.96875 1021.046875 C 559.726562 1021.242188 559.464844 1021.414062 559.1875 1021.558594 C 558.910156 1021.703125 558.621094 1021.820312 558.320312 1021.910156 C 558.019531 1022 557.714844 1022.054688 557.402344 1022.085938 C 557.089844 1022.113281 556.78125 1022.109375 556.46875 1022.078125 C 556.15625 1022.042969 555.851562 1021.980469 555.554688 1021.886719 C 555.253906 1021.792969 554.96875 1021.671875 554.691406 1021.523438 C 554.417969 1021.371094 554.160156 1021.195312 553.921875 1020.996094 C 553.679688 1020.796875 553.460938 1020.574219 553.265625 1020.328125 C 553.066406 1020.085938 552.898438 1019.824219 552.753906 1019.546875 C 552.605469 1019.269531 552.488281 1018.980469 552.402344 1018.679688 C 552.3125 1018.378906 552.253906 1018.074219 552.226562 1017.761719 C 552.199219 1017.449219 552.199219 1017.136719 552.234375 1016.828125 C 552.269531 1016.515625 552.332031 1016.210938 552.425781 1015.910156 C 552.519531 1015.613281 552.640625 1015.324219 552.789062 1015.050781 C 553.574219 1013.625 554.359375 1012.316406 555.144531 1010.773438 Z M 575.988281 977.414062 C 576.15625 977.136719 576.351562 976.878906 576.574219 976.640625 C 576.796875 976.402344 577.042969 976.191406 577.308594 976.003906 C 577.574219 975.816406 577.859375 975.65625 578.15625 975.527344 C 578.457031 975.398438 578.765625 975.300781 579.082031 975.234375 C 579.402344 975.167969 579.722656 975.136719 580.050781 975.136719 C 580.375 975.136719 580.695312 975.167969 581.015625 975.234375 C 581.335938 975.300781 581.644531 975.398438 581.941406 975.527344 C 582.242188 975.65625 582.523438 975.8125 582.789062 976 C 583.058594 976.1875 583.300781 976.398438 583.523438 976.636719 C 583.746094 976.875 583.945312 977.132812 584.113281 977.410156 C 584.285156 977.6875 584.425781 977.976562 584.535156 978.285156 C 584.648438 978.589844 584.726562 978.90625 584.773438 979.226562 C 584.816406 979.550781 584.832031 979.875 584.8125 980.199219 C 584.789062 980.523438 584.738281 980.84375 584.652344 981.15625 C 584.566406 981.472656 584.449219 981.773438 584.304688 982.066406 C 584.15625 982.355469 583.980469 982.628906 583.777344 982.882812 C 581.976562 985.441406 580.171875 988.117188 578.398438 990.792969 C 578.226562 991.054688 578.03125 991.296875 577.808594 991.519531 C 577.589844 991.742188 577.347656 991.941406 577.089844 992.117188 C 576.828125 992.292969 576.554688 992.441406 576.265625 992.5625 C 575.976562 992.683594 575.679688 992.777344 575.371094 992.839844 C 575.066406 992.902344 574.753906 992.933594 574.441406 992.9375 C 574.128906 992.9375 573.816406 992.910156 573.511719 992.851562 C 573.203125 992.789062 572.902344 992.699219 572.613281 992.582031 C 572.324219 992.464844 572.046875 992.320312 571.785156 992.144531 C 571.523438 991.972656 571.28125 991.777344 571.058594 991.554688 C 570.835938 991.335938 570.636719 991.09375 570.460938 990.835938 C 570.285156 990.574219 570.136719 990.300781 570.015625 990.011719 C 569.894531 989.722656 569.804688 989.425781 569.742188 989.117188 C 569.679688 988.808594 569.644531 988.5 569.644531 988.1875 C 569.640625 987.871094 569.671875 987.5625 569.730469 987.253906 C 569.789062 986.945312 569.878906 986.648438 569.996094 986.355469 C 570.117188 986.066406 570.261719 985.789062 570.433594 985.527344 C 572.265625 982.824219 574.125 980.117188 575.988281 977.414062 Z M 600.40625 946.554688 C 600.839844 946.132812 601.332031 945.804688 601.890625 945.574219 C 602.445312 945.339844 603.027344 945.21875 603.628906 945.203125 C 604.230469 945.191406 604.816406 945.289062 605.382812 945.5 C 605.949219 945.707031 606.457031 946.015625 606.90625 946.417969 C 607.355469 946.816406 607.71875 947.289062 607.988281 947.828125 C 608.261719 948.367188 608.421875 948.9375 608.476562 949.539062 C 608.53125 950.140625 608.476562 950.730469 608.308594 951.308594 C 608.136719 951.890625 607.867188 952.417969 607.5 952.894531 C 605.40625 955.25 603.3125 957.664062 601.25 960.109375 C 601.050781 960.355469 600.828125 960.582031 600.585938 960.785156 C 600.339844 960.992188 600.078125 961.167969 599.800781 961.320312 C 599.519531 961.472656 599.230469 961.59375 598.925781 961.6875 C 598.621094 961.78125 598.3125 961.84375 597.996094 961.875 C 597.679688 961.90625 597.363281 961.90625 597.046875 961.875 C 596.730469 961.84375 596.417969 961.777344 596.117188 961.683594 C 595.8125 961.589844 595.519531 961.46875 595.242188 961.316406 C 594.960938 961.164062 594.703125 960.984375 594.457031 960.78125 C 594.214844 960.574219 593.992188 960.347656 593.796875 960.097656 C 593.597656 959.851562 593.425781 959.585938 593.28125 959.300781 C 593.136719 959.019531 593.023438 958.722656 592.9375 958.417969 C 592.851562 958.109375 592.796875 957.800781 592.773438 957.480469 C 592.746094 957.164062 592.757812 956.847656 592.796875 956.53125 C 592.835938 956.21875 592.90625 955.910156 593.007812 955.605469 C 593.109375 955.304688 593.238281 955.015625 593.398438 954.742188 C 593.558594 954.464844 593.742188 954.210938 593.953125 953.972656 C 596.066406 951.46875 598.214844 949.015625 600.40625 946.613281 Z M 628.601562 919.011719 C 628.84375 918.808594 629.097656 918.628906 629.371094 918.476562 C 629.644531 918.324219 629.929688 918.199219 630.230469 918.101562 C 630.527344 918.003906 630.832031 917.9375 631.144531 917.902344 C 631.457031 917.867188 631.765625 917.859375 632.078125 917.886719 C 632.390625 917.910156 632.699219 917.964844 633 918.050781 C 633.300781 918.136719 633.59375 918.25 633.871094 918.394531 C 634.152344 918.535156 634.414062 918.703125 634.660156 918.898438 C 634.90625 919.09375 635.128906 919.308594 635.332031 919.546875 C 635.535156 919.789062 635.714844 920.042969 635.867188 920.316406 C 636.019531 920.589844 636.144531 920.878906 636.242188 921.175781 C 636.339844 921.472656 636.40625 921.777344 636.441406 922.089844 C 636.476562 922.402344 636.484375 922.714844 636.457031 923.027344 C 636.433594 923.339844 636.378906 923.648438 636.292969 923.949219 C 636.207031 924.25 636.09375 924.539062 635.949219 924.820312 C 635.808594 925.097656 635.640625 925.363281 635.445312 925.609375 C 635.25 925.855469 635.035156 926.078125 634.796875 926.28125 C 632.371094 928.316406 629.988281 930.410156 627.644531 932.5625 C 627.414062 932.789062 627.167969 932.992188 626.898438 933.167969 C 626.628906 933.34375 626.347656 933.492188 626.046875 933.609375 C 625.75 933.726562 625.441406 933.816406 625.125 933.871094 C 624.808594 933.929688 624.492188 933.953125 624.167969 933.945312 C 623.847656 933.9375 623.53125 933.894531 623.21875 933.824219 C 622.90625 933.753906 622.601562 933.648438 622.308594 933.515625 C 622.019531 933.382812 621.742188 933.222656 621.484375 933.03125 C 621.222656 932.84375 620.984375 932.628906 620.769531 932.390625 C 620.550781 932.15625 620.359375 931.898438 620.195312 931.621094 C 620.03125 931.347656 619.894531 931.058594 619.789062 930.753906 C 619.683594 930.449219 619.609375 930.140625 619.566406 929.820312 C 619.523438 929.503906 619.511719 929.183594 619.53125 928.863281 C 619.550781 928.542969 619.605469 928.226562 619.691406 927.917969 C 619.773438 927.605469 619.890625 927.308594 620.035156 927.023438 C 620.179688 926.734375 620.351562 926.464844 620.550781 926.214844 C 620.75 925.960938 620.972656 925.734375 621.21875 925.527344 C 623.660156 923.375 626.132812 921.191406 628.601562 919.070312 Z M 660.40625 895.742188 C 660.671875 895.574219 660.949219 895.433594 661.242188 895.324219 C 661.535156 895.210938 661.835938 895.128906 662.144531 895.074219 C 662.453125 895.023438 662.765625 895 663.078125 895.007812 C 663.394531 895.019531 663.703125 895.058594 664.007812 895.125 C 664.3125 895.195312 664.609375 895.296875 664.894531 895.421875 C 665.183594 895.550781 665.453125 895.707031 665.710938 895.886719 C 665.964844 896.066406 666.199219 896.273438 666.417969 896.5 C 666.632812 896.726562 666.824219 896.976562 666.992188 897.238281 C 667.15625 897.503906 667.296875 897.785156 667.410156 898.078125 C 667.519531 898.371094 667.601562 898.671875 667.65625 898.980469 C 667.707031 899.289062 667.730469 899.601562 667.722656 899.914062 C 667.714844 900.230469 667.675781 900.539062 667.605469 900.84375 C 667.535156 901.148438 667.4375 901.445312 667.308594 901.734375 C 667.179688 902.019531 667.027344 902.289062 666.847656 902.546875 C 666.664062 902.800781 666.460938 903.039062 666.234375 903.253906 C 666.003906 903.46875 665.757812 903.660156 665.492188 903.828125 C 662.820312 905.484375 660.144531 907.230469 657.5 909.035156 C 657.238281 909.191406 656.96875 909.324219 656.683594 909.425781 C 656.402344 909.53125 656.109375 909.609375 655.8125 909.660156 C 655.511719 909.710938 655.210938 909.730469 654.910156 909.722656 C 654.605469 909.714844 654.308594 909.679688 654.011719 909.613281 C 653.714844 909.550781 653.429688 909.457031 653.152344 909.339844 C 652.875 909.21875 652.609375 909.074219 652.359375 908.90625 C 652.105469 908.738281 651.875 908.542969 651.660156 908.332031 C 651.445312 908.117188 651.253906 907.882812 651.085938 907.632812 C 650.914062 907.382812 650.769531 907.121094 650.648438 906.839844 C 650.53125 906.5625 650.4375 906.277344 650.371094 905.980469 C 650.308594 905.683594 650.269531 905.386719 650.261719 905.082031 C 650.253906 904.78125 650.273438 904.480469 650.324219 904.179688 C 650.375 903.882812 650.449219 903.589844 650.554688 903.304688 C 650.660156 903.023438 650.789062 902.75 650.945312 902.492188 C 651.101562 902.230469 651.28125 901.988281 651.484375 901.765625 C 651.6875 901.539062 651.910156 901.335938 652.148438 901.152344 C 654.882812 899.261719 657.644531 897.457031 660.40625 895.714844 Z M 695.289062 877.15625 C 695.578125 877.027344 695.871094 876.929688 696.179688 876.859375 C 696.484375 876.785156 696.792969 876.746094 697.109375 876.738281 C 697.421875 876.726562 697.734375 876.75 698.042969 876.800781 C 698.351562 876.851562 698.65625 876.933594 698.949219 877.046875 C 699.242188 877.15625 699.519531 877.296875 699.789062 877.464844 C 700.054688 877.628906 700.300781 877.820312 700.53125 878.035156 C 700.757812 878.25 700.964844 878.488281 701.144531 878.742188 C 701.328125 879 701.484375 879.269531 701.613281 879.554688 C 701.742188 879.84375 701.839844 880.140625 701.910156 880.445312 C 701.980469 880.75 702.023438 881.0625 702.03125 881.375 C 702.042969 881.6875 702.019531 882 701.96875 882.3125 C 701.917969 882.621094 701.835938 882.921875 701.722656 883.214844 C 701.613281 883.511719 701.472656 883.789062 701.304688 884.054688 C 701.140625 884.324219 700.949219 884.570312 700.734375 884.800781 C 700.519531 885.027344 700.28125 885.234375 700.027344 885.414062 C 699.773438 885.597656 699.5 885.753906 699.214844 885.882812 C 696.308594 887.160156 693.402344 888.527344 690.492188 889.925781 C 690.210938 890.078125 689.917969 890.199219 689.609375 890.289062 C 689.304688 890.382812 688.992188 890.441406 688.675781 890.472656 C 688.355469 890.5 688.039062 890.496094 687.71875 890.460938 C 687.402344 890.425781 687.089844 890.359375 686.785156 890.261719 C 686.480469 890.164062 686.1875 890.039062 685.910156 889.882812 C 685.632812 889.726562 685.371094 889.542969 685.128906 889.335938 C 684.886719 889.125 684.667969 888.894531 684.472656 888.640625 C 684.277344 888.386719 684.105469 888.117188 683.964844 887.832031 C 683.824219 887.542969 683.710938 887.246094 683.632812 886.9375 C 683.550781 886.628906 683.5 886.3125 683.480469 885.992188 C 683.464844 885.671875 683.476562 885.355469 683.523438 885.039062 C 683.570312 884.722656 683.644531 884.414062 683.753906 884.113281 C 683.859375 883.8125 683.996094 883.523438 684.164062 883.25 C 684.328125 882.976562 684.519531 882.722656 684.738281 882.484375 C 684.953125 882.25 685.191406 882.039062 685.453125 881.851562 C 685.710938 881.664062 685.988281 881.507812 686.277344 881.375 C 689.214844 879.863281 692.207031 878.523438 695.171875 877.128906 Z M 732.152344 863.339844 C 732.449219 863.246094 732.753906 863.179688 733.066406 863.144531 C 733.378906 863.109375 733.691406 863.105469 734.003906 863.132812 C 734.316406 863.15625 734.621094 863.214844 734.921875 863.300781 C 735.222656 863.386719 735.515625 863.503906 735.792969 863.644531 C 736.070312 863.789062 736.335938 863.960938 736.578125 864.15625 C 736.824219 864.351562 737.046875 864.566406 737.25 864.808594 C 737.453125 865.046875 737.628906 865.304688 737.78125 865.578125 C 737.933594 865.851562 738.058594 866.140625 738.152344 866.4375 C 738.25 866.738281 738.3125 867.042969 738.351562 867.355469 C 738.386719 867.667969 738.390625 867.980469 738.363281 868.292969 C 738.335938 868.605469 738.28125 868.910156 738.195312 869.210938 C 738.109375 869.515625 737.992188 869.804688 737.847656 870.082031 C 737.707031 870.363281 737.535156 870.625 737.339844 870.871094 C 737.144531 871.113281 736.925781 871.339844 736.6875 871.542969 C 736.449219 871.746094 736.191406 871.921875 735.917969 872.074219 C 735.644531 872.226562 735.355469 872.347656 735.058594 872.445312 C 732.152344 873.375 728.980469 874.394531 725.957031 875.351562 C 725.664062 875.453125 725.359375 875.523438 725.046875 875.5625 C 724.738281 875.605469 724.425781 875.613281 724.113281 875.59375 C 723.800781 875.574219 723.496094 875.519531 723.191406 875.441406 C 722.890625 875.359375 722.597656 875.25 722.320312 875.109375 C 722.039062 874.972656 721.773438 874.808594 721.527344 874.617188 C 721.277344 874.425781 721.050781 874.214844 720.84375 873.976562 C 720.636719 873.742188 720.457031 873.488281 720.296875 873.21875 C 720.140625 872.945312 720.011719 872.664062 719.914062 872.367188 C 719.8125 872.070312 719.738281 871.765625 719.699219 871.457031 C 719.65625 871.148438 719.648438 870.835938 719.667969 870.523438 C 719.6875 870.210938 719.738281 869.902344 719.816406 869.601562 C 719.898438 869.296875 720.003906 869.003906 720.144531 868.722656 C 720.28125 868.441406 720.445312 868.179688 720.632812 867.929688 C 720.824219 867.679688 721.035156 867.453125 721.269531 867.246094 C 721.503906 867.039062 721.757812 866.855469 722.027344 866.699219 C 722.296875 866.539062 722.582031 866.410156 722.878906 866.308594 C 725.8125 865.289062 728.925781 864.273438 732.035156 863.3125 Z M 770.230469 853.742188 C 770.53125 853.699219 770.832031 853.683594 771.132812 853.695312 C 771.433594 853.710938 771.734375 853.753906 772.027344 853.824219 C 772.320312 853.890625 772.605469 853.988281 772.882812 854.113281 C 773.15625 854.238281 773.417969 854.386719 773.664062 854.558594 C 773.914062 854.734375 774.140625 854.929688 774.351562 855.148438 C 774.5625 855.363281 774.75 855.601562 774.914062 855.851562 C 775.078125 856.105469 775.21875 856.371094 775.332031 856.652344 C 775.449219 856.933594 775.535156 857.21875 775.597656 857.515625 C 775.65625 857.8125 775.6875 858.113281 775.691406 858.414062 C 775.695312 858.714844 775.667969 859.015625 775.613281 859.3125 C 775.558594 859.609375 775.480469 859.902344 775.371094 860.183594 C 775.261719 860.464844 775.125 860.734375 774.964844 860.988281 C 774.804688 861.246094 774.625 861.484375 774.417969 861.707031 C 774.210938 861.929688 773.988281 862.128906 773.746094 862.308594 C 773.5 862.488281 773.242188 862.640625 772.96875 862.769531 C 772.695312 862.902344 772.414062 863.003906 772.121094 863.078125 L 762.730469 865.117188 C 762.421875 865.191406 762.109375 865.238281 761.789062 865.253906 C 761.472656 865.265625 761.15625 865.25 760.839844 865.199219 C 760.523438 865.152344 760.21875 865.070312 759.917969 864.960938 C 759.621094 864.851562 759.335938 864.710938 759.0625 864.542969 C 758.792969 864.375 758.539062 864.179688 758.308594 863.960938 C 758.074219 863.742188 757.867188 863.503906 757.683594 863.242188 C 757.5 862.984375 757.34375 862.707031 757.214844 862.414062 C 757.085938 862.121094 756.988281 861.820312 756.917969 861.507812 C 756.839844 861.199219 756.792969 860.882812 756.773438 860.566406 C 756.757812 860.246094 756.777344 859.929688 756.824219 859.613281 C 756.871094 859.296875 756.953125 858.988281 757.0625 858.6875 C 757.171875 858.386719 757.3125 858.101562 757.480469 857.832031 C 757.648438 857.558594 757.84375 857.308594 758.0625 857.074219 C 758.28125 856.84375 758.523438 856.632812 758.785156 856.449219 C 759.042969 856.265625 759.320312 856.109375 759.613281 855.984375 C 759.90625 855.855469 760.210938 855.757812 760.523438 855.691406 C 763.71875 855.050781 766.917969 854.355469 770.117188 853.714844 Z M 808.808594 847.375 C 809.125 847.320312 809.441406 847.300781 809.761719 847.3125 C 810.078125 847.324219 810.394531 847.367188 810.703125 847.441406 C 811.015625 847.519531 811.316406 847.625 811.605469 847.757812 C 811.894531 847.894531 812.167969 848.058594 812.421875 848.246094 C 812.679688 848.4375 812.914062 848.652344 813.128906 848.890625 C 813.34375 849.128906 813.53125 849.382812 813.691406 849.660156 C 813.855469 849.933594 813.988281 850.222656 814.09375 850.523438 C 814.195312 850.828125 814.269531 851.136719 814.3125 851.453125 C 814.351562 851.769531 814.363281 852.089844 814.339844 852.40625 C 814.320312 852.726562 814.265625 853.039062 814.179688 853.347656 C 814.09375 853.65625 813.980469 853.953125 813.835938 854.238281 C 813.691406 854.523438 813.519531 854.789062 813.320312 855.042969 C 813.125 855.292969 812.902344 855.519531 812.65625 855.726562 C 812.414062 855.933594 812.152344 856.113281 811.871094 856.265625 C 811.589844 856.417969 811.296875 856.542969 810.992188 856.636719 C 810.6875 856.730469 810.375 856.792969 810.058594 856.824219 L 800.523438 858.164062 C 800.214844 858.210938 799.902344 858.226562 799.589844 858.210938 C 799.273438 858.195312 798.964844 858.148438 798.664062 858.070312 C 798.359375 857.996094 798.066406 857.890625 797.78125 857.753906 C 797.496094 857.621094 797.230469 857.460938 796.980469 857.273438 C 796.726562 857.085938 796.496094 856.875 796.285156 856.644531 C 796.074219 856.410156 795.890625 856.160156 795.726562 855.890625 C 795.566406 855.621094 795.433594 855.339844 795.328125 855.042969 C 795.222656 854.75 795.148438 854.445312 795.101562 854.136719 C 795.054688 853.824219 795.039062 853.511719 795.054688 853.199219 C 795.070312 852.886719 795.117188 852.578125 795.195312 852.273438 C 795.269531 851.96875 795.375 851.675781 795.511719 851.390625 C 795.644531 851.109375 795.804688 850.839844 795.992188 850.589844 C 796.179688 850.335938 796.386719 850.105469 796.621094 849.894531 C 796.851562 849.683594 797.105469 849.5 797.375 849.339844 C 797.640625 849.175781 797.925781 849.042969 798.21875 848.9375 C 798.515625 848.832031 798.816406 848.757812 799.128906 848.710938 C 802.238281 848.214844 805.464844 847.75 808.691406 847.34375 Z M 847.5 842.921875 C 847.8125 842.890625 848.125 842.890625 848.4375 842.921875 C 848.75 842.949219 849.054688 843.011719 849.355469 843.101562 C 849.65625 843.191406 849.945312 843.3125 850.222656 843.457031 C 850.5 843.605469 850.757812 843.777344 851 843.976562 C 851.246094 844.175781 851.464844 844.394531 851.664062 844.636719 C 851.863281 844.878906 852.039062 845.140625 852.1875 845.414062 C 852.335938 845.691406 852.457031 845.980469 852.546875 846.28125 C 852.640625 846.582031 852.703125 846.886719 852.734375 847.199219 C 852.765625 847.511719 852.765625 847.824219 852.734375 848.136719 C 852.707031 848.449219 852.644531 848.753906 852.554688 849.054688 C 852.464844 849.355469 852.34375 849.644531 852.199219 849.921875 C 852.050781 850.199219 851.878906 850.457031 851.679688 850.703125 C 851.480469 850.945312 851.261719 851.167969 851.019531 851.367188 C 850.777344 851.566406 850.519531 851.738281 850.242188 851.886719 C 849.964844 852.035156 849.675781 852.15625 849.378906 852.25 C 849.078125 852.339844 848.773438 852.402344 848.460938 852.433594 L 838.835938 853.421875 C 838.523438 853.464844 838.203125 853.476562 837.886719 853.457031 C 837.570312 853.4375 837.257812 853.382812 836.949219 853.300781 C 836.640625 853.214844 836.34375 853.105469 836.058594 852.960938 C 835.773438 852.816406 835.507812 852.648438 835.257812 852.453125 C 835.003906 852.253906 834.777344 852.035156 834.570312 851.792969 C 834.363281 851.550781 834.183594 851.289062 834.027344 851.011719 C 833.875 850.730469 833.746094 850.441406 833.652344 850.136719 C 833.554688 849.832031 833.488281 849.523438 833.457031 849.207031 C 833.421875 848.886719 833.417969 848.570312 833.449219 848.253906 C 833.480469 847.9375 833.539062 847.625 833.632812 847.320312 C 833.722656 847.015625 833.84375 846.722656 833.996094 846.441406 C 834.144531 846.160156 834.324219 845.898438 834.527344 845.652344 C 834.730469 845.40625 834.957031 845.183594 835.203125 844.984375 C 835.453125 844.78125 835.71875 844.609375 836 844.460938 C 836.28125 844.316406 836.578125 844.199219 836.882812 844.109375 C 837.191406 844.023438 837.503906 843.964844 837.820312 843.941406 Z M 885.988281 838.851562 C 886.308594 838.792969 886.632812 838.765625 886.957031 838.773438 C 887.285156 838.78125 887.605469 838.820312 887.921875 838.890625 C 888.242188 838.964844 888.546875 839.070312 888.84375 839.203125 C 889.140625 839.339844 889.417969 839.503906 889.683594 839.699219 C 889.945312 839.890625 890.183594 840.109375 890.402344 840.351562 C 890.621094 840.59375 890.8125 840.855469 890.976562 841.136719 C 891.140625 841.417969 891.273438 841.714844 891.378906 842.023438 C 891.480469 842.332031 891.550781 842.648438 891.589844 842.972656 C 891.628906 843.296875 891.636719 843.621094 891.609375 843.945312 C 891.582031 844.269531 891.519531 844.589844 891.425781 844.902344 C 891.335938 845.214844 891.210938 845.515625 891.054688 845.800781 C 890.902344 846.089844 890.71875 846.355469 890.511719 846.605469 C 890.300781 846.855469 890.070312 847.082031 889.8125 847.285156 C 889.558594 847.488281 889.285156 847.660156 888.992188 847.804688 C 888.699219 847.953125 888.398438 848.066406 888.082031 848.152344 C 887.769531 848.234375 887.449219 848.285156 887.121094 848.304688 L 877.441406 849.410156 C 877.132812 849.441406 876.824219 849.441406 876.515625 849.410156 C 876.203125 849.382812 875.902344 849.320312 875.601562 849.234375 C 875.304688 849.144531 875.019531 849.027344 874.742188 848.882812 C 874.46875 848.734375 874.210938 848.566406 873.96875 848.371094 C 873.726562 848.175781 873.507812 847.957031 873.308594 847.71875 C 873.109375 847.480469 872.933594 847.222656 872.785156 846.949219 C 872.636719 846.675781 872.515625 846.390625 872.421875 846.09375 C 872.328125 845.796875 872.265625 845.496094 872.230469 845.1875 C 872.195312 844.878906 872.191406 844.566406 872.21875 844.257812 C 872.246094 843.949219 872.300781 843.644531 872.386719 843.34375 C 872.472656 843.046875 872.585938 842.757812 872.730469 842.480469 C 872.871094 842.203125 873.039062 841.945312 873.230469 841.699219 C 873.425781 841.457031 873.640625 841.234375 873.875 841.03125 C 874.113281 840.828125 874.367188 840.652344 874.640625 840.5 C 874.910156 840.347656 875.195312 840.226562 875.488281 840.128906 C 875.785156 840.03125 876.085938 839.964844 876.394531 839.925781 Z M 923.78125 832.832031 C 924.085938 832.765625 924.394531 832.730469 924.710938 832.726562 C 925.023438 832.71875 925.332031 832.746094 925.640625 832.800781 C 925.949219 832.859375 926.25 832.945312 926.539062 833.0625 C 926.832031 833.175781 927.109375 833.320312 927.371094 833.488281 C 927.636719 833.660156 927.878906 833.851562 928.105469 834.070312 C 928.328125 834.289062 928.53125 834.527344 928.707031 834.785156 C 928.886719 835.042969 929.039062 835.316406 929.160156 835.605469 C 929.285156 835.890625 929.382812 836.1875 929.445312 836.496094 C 929.511719 836.800781 929.546875 837.113281 929.554688 837.425781 C 929.558594 837.738281 929.53125 838.050781 929.476562 838.359375 C 929.417969 838.667969 929.332031 838.964844 929.21875 839.257812 C 929.101562 839.550781 928.960938 839.828125 928.789062 840.089844 C 928.621094 840.351562 928.425781 840.597656 928.207031 840.824219 C 927.988281 841.046875 927.753906 841.25 927.496094 841.425781 C 927.238281 841.605469 926.964844 841.757812 926.675781 841.882812 C 926.390625 842.007812 926.09375 842.101562 925.785156 842.167969 C 922.617188 842.835938 919.390625 843.476562 916.105469 844.058594 C 915.789062 844.136719 915.464844 844.1875 915.140625 844.199219 C 914.8125 844.214844 914.488281 844.195312 914.164062 844.140625 C 913.839844 844.089844 913.527344 844.003906 913.222656 843.886719 C 912.917969 843.769531 912.625 843.621094 912.351562 843.445312 C 912.074219 843.269531 911.820312 843.066406 911.589844 842.835938 C 911.355469 842.605469 911.148438 842.355469 910.964844 842.082031 C 910.785156 841.808594 910.632812 841.523438 910.511719 841.21875 C 910.386719 840.914062 910.296875 840.601562 910.238281 840.28125 C 910.179688 839.957031 910.15625 839.632812 910.164062 839.304688 C 910.175781 838.980469 910.214844 838.65625 910.292969 838.335938 C 910.367188 838.019531 910.472656 837.710938 910.613281 837.414062 C 910.75 837.117188 910.917969 836.839844 911.113281 836.578125 C 911.308594 836.3125 911.53125 836.074219 911.777344 835.859375 C 912.023438 835.640625 912.285156 835.453125 912.570312 835.289062 C 912.855469 835.128906 913.152344 834.996094 913.464844 834.894531 C 913.777344 834.796875 914.09375 834.726562 914.417969 834.691406 C 917.53125 834.082031 920.667969 833.46875 923.75 832.800781 Z M 959.535156 821.195312 C 959.820312 821.0625 960.117188 820.957031 960.425781 820.882812 C 960.730469 820.804688 961.042969 820.757812 961.359375 820.746094 C 961.675781 820.730469 961.988281 820.746094 962.300781 820.792969 C 962.613281 820.839844 962.917969 820.917969 963.214844 821.023438 C 963.515625 821.132812 963.796875 821.265625 964.070312 821.429688 C 964.339844 821.589844 964.59375 821.78125 964.828125 821.992188 C 965.0625 822.203125 965.273438 822.4375 965.460938 822.691406 C 965.648438 822.945312 965.808594 823.214844 965.945312 823.5 C 966.082031 823.789062 966.1875 824.082031 966.261719 824.390625 C 966.339844 824.695312 966.386719 825.007812 966.402344 825.324219 C 966.417969 825.640625 966.402344 825.953125 966.359375 826.265625 C 966.3125 826.578125 966.234375 826.886719 966.128906 827.183594 C 966.023438 827.480469 965.890625 827.765625 965.730469 828.039062 C 965.566406 828.308594 965.378906 828.5625 965.167969 828.796875 C 964.957031 829.03125 964.726562 829.246094 964.472656 829.433594 C 964.21875 829.621094 963.949219 829.785156 963.664062 829.921875 C 960.757812 831.347656 957.589844 832.832031 954.417969 833.90625 C 954.128906 834.019531 953.828125 834.105469 953.519531 834.160156 C 953.210938 834.214844 952.898438 834.238281 952.585938 834.230469 C 952.273438 834.222656 951.960938 834.1875 951.65625 834.117188 C 951.351562 834.050781 951.054688 833.953125 950.769531 833.828125 C 950.480469 833.699219 950.210938 833.546875 949.953125 833.367188 C 949.695312 833.1875 949.460938 832.984375 949.242188 832.757812 C 949.027344 832.53125 948.832031 832.285156 948.664062 832.023438 C 948.496094 831.757812 948.355469 831.480469 948.242188 831.1875 C 948.128906 830.894531 948.042969 830.59375 947.988281 830.285156 C 947.9375 829.976562 947.910156 829.664062 947.917969 829.351562 C 947.925781 829.039062 947.964844 828.730469 948.03125 828.421875 C 948.097656 828.117188 948.195312 827.820312 948.320312 827.535156 C 948.449219 827.246094 948.601562 826.976562 948.78125 826.71875 C 948.960938 826.460938 949.164062 826.222656 949.390625 826.007812 C 949.617188 825.789062 949.863281 825.597656 950.125 825.429688 C 950.390625 825.261719 950.667969 825.121094 950.960938 825.007812 C 953.867188 823.785156 956.746094 822.5625 959.507812 821.226562 Z M 988.605469 799.089844 C 988.808594 798.867188 989.035156 798.667969 989.277344 798.488281 C 989.519531 798.304688 989.777344 798.148438 990.046875 798.019531 C 990.320312 797.886719 990.601562 797.78125 990.894531 797.703125 C 991.1875 797.628906 991.484375 797.578125 991.785156 797.554688 C 992.085938 797.535156 992.386719 797.542969 992.6875 797.578125 C 992.988281 797.613281 993.28125 797.679688 993.570312 797.769531 C 993.859375 797.863281 994.132812 797.980469 994.398438 798.125 C 994.664062 798.269531 994.914062 798.4375 995.148438 798.628906 C 995.382812 798.820312 995.59375 799.035156 995.789062 799.265625 C 995.980469 799.5 996.152344 799.75 996.296875 800.011719 C 996.441406 800.277344 996.5625 800.554688 996.65625 800.84375 C 996.75 801.128906 996.8125 801.421875 996.851562 801.722656 C 996.886719 802.023438 996.898438 802.324219 996.878906 802.625 C 996.859375 802.929688 996.808594 803.226562 996.734375 803.519531 C 996.65625 803.8125 996.554688 804.09375 996.425781 804.367188 C 996.292969 804.640625 996.140625 804.898438 995.960938 805.140625 C 993.808594 807.8125 991.480469 810.324219 988.984375 812.675781 C 988.761719 812.910156 988.519531 813.121094 988.253906 813.308594 C 987.988281 813.496094 987.707031 813.65625 987.410156 813.785156 C 987.113281 813.914062 986.804688 814.011719 986.488281 814.078125 C 986.171875 814.148438 985.851562 814.179688 985.527344 814.183594 C 985.203125 814.183594 984.878906 814.152344 984.5625 814.089844 C 984.246094 814.023438 983.9375 813.929688 983.636719 813.800781 C 983.339844 813.675781 983.058594 813.519531 982.789062 813.332031 C 982.523438 813.148438 982.277344 812.9375 982.054688 812.703125 C 981.832031 812.46875 981.632812 812.214844 981.460938 811.9375 C 981.289062 811.664062 981.148438 811.375 981.035156 811.070312 C 980.921875 810.765625 980.839844 810.453125 980.792969 810.132812 C 980.742188 809.8125 980.726562 809.488281 980.746094 809.164062 C 980.761719 808.839844 980.808594 808.523438 980.890625 808.207031 C 980.972656 807.894531 981.085938 807.59375 981.230469 807.300781 C 981.375 807.011719 981.546875 806.738281 981.746094 806.480469 C 981.945312 806.226562 982.167969 805.992188 982.414062 805.78125 C 984.570312 803.6875 986.585938 801.46875 988.460938 799.121094 Z M 1005.175781 766.398438 C 1005.25 766.082031 1005.355469 765.777344 1005.492188 765.484375 C 1005.628906 765.191406 1005.792969 764.914062 1005.988281 764.652344 C 1006.179688 764.390625 1006.398438 764.152344 1006.640625 763.9375 C 1006.882812 763.722656 1007.144531 763.53125 1007.425781 763.367188 C 1007.703125 763.207031 1008 763.074219 1008.304688 762.972656 C 1008.613281 762.867188 1008.929688 762.796875 1009.25 762.757812 C 1009.574219 762.71875 1009.894531 762.714844 1010.21875 762.742188 C 1010.542969 762.769531 1010.859375 762.828125 1011.167969 762.921875 C 1011.480469 763.015625 1011.777344 763.136719 1012.066406 763.289062 C 1012.351562 763.441406 1012.617188 763.625 1012.867188 763.832031 C 1013.117188 764.039062 1013.34375 764.269531 1013.542969 764.523438 C 1013.746094 764.777344 1013.921875 765.046875 1014.066406 765.335938 C 1014.214844 765.628906 1014.332031 765.929688 1014.414062 766.242188 C 1014.5 766.554688 1014.554688 766.871094 1014.574219 767.195312 C 1014.59375 767.519531 1014.582031 767.84375 1014.535156 768.164062 C 1014.492188 768.484375 1014.414062 768.800781 1014.304688 769.105469 C 1013.433594 772.160156 1012.328125 775.359375 1011.046875 778.671875 C 1010.933594 778.964844 1010.792969 779.242188 1010.625 779.503906 C 1010.453125 779.769531 1010.261719 780.015625 1010.046875 780.238281 C 1009.828125 780.464844 1009.59375 780.667969 1009.335938 780.847656 C 1009.078125 781.027344 1008.808594 781.179688 1008.519531 781.304688 C 1008.234375 781.429688 1007.9375 781.527344 1007.632812 781.59375 C 1007.328125 781.660156 1007.019531 781.699219 1006.707031 781.703125 C 1006.394531 781.710938 1006.082031 781.6875 1005.773438 781.632812 C 1005.464844 781.578125 1005.167969 781.492188 1004.875 781.378906 C 1004.582031 781.265625 1004.304688 781.125 1004.042969 780.957031 C 1003.777344 780.789062 1003.535156 780.597656 1003.308594 780.382812 C 1003.082031 780.164062 1002.878906 779.929688 1002.699219 779.671875 C 1002.519531 779.417969 1002.367188 779.144531 1002.238281 778.859375 C 1002.113281 778.574219 1002.015625 778.277344 1001.949219 777.972656 C 1001.878906 777.667969 1001.839844 777.359375 1001.835938 777.042969 C 1001.828125 776.730469 1001.851562 776.421875 1001.902344 776.113281 C 1001.957031 775.804688 1002.039062 775.503906 1002.152344 775.210938 C 1003.199219 772.1875 1004.1875 769.25 1005.03125 766.429688 Z M 1004.738281 731.730469 C 1004.613281 731.445312 1004.515625 731.148438 1004.445312 730.84375 C 1004.375 730.535156 1004.339844 730.226562 1004.332031 729.914062 C 1004.320312 729.601562 1004.34375 729.289062 1004.398438 728.980469 C 1004.449219 728.671875 1004.535156 728.371094 1004.644531 728.078125 C 1004.757812 727.785156 1004.898438 727.507812 1005.066406 727.242188 C 1005.230469 726.976562 1005.421875 726.730469 1005.636719 726.503906 C 1005.855469 726.277344 1006.089844 726.074219 1006.34375 725.890625 C 1006.601562 725.710938 1006.871094 725.554688 1007.15625 725.429688 C 1007.441406 725.300781 1007.738281 725.203125 1008.042969 725.132812 C 1008.347656 725.0625 1008.65625 725.023438 1008.972656 725.015625 C 1009.285156 725.007812 1009.59375 725.027344 1009.902344 725.082031 C 1010.210938 725.132812 1010.511719 725.214844 1010.804688 725.328125 C 1011.097656 725.4375 1011.378906 725.578125 1011.640625 725.742188 C 1011.90625 725.910156 1012.152344 726.101562 1012.382812 726.316406 C 1012.609375 726.53125 1012.8125 726.765625 1012.996094 727.019531 C 1013.175781 727.277344 1013.332031 727.546875 1013.460938 727.832031 C 1014.929688 731.148438 1015.996094 734.589844 1016.660156 738.15625 C 1016.714844 738.464844 1016.742188 738.777344 1016.734375 739.089844 C 1016.730469 739.402344 1016.695312 739.710938 1016.628906 740.019531 C 1016.566406 740.324219 1016.46875 740.621094 1016.347656 740.910156 C 1016.222656 741.195312 1016.070312 741.46875 1015.894531 741.726562 C 1015.714844 741.984375 1015.515625 742.222656 1015.289062 742.441406 C 1015.066406 742.660156 1014.824219 742.855469 1014.558594 743.023438 C 1014.296875 743.195312 1014.019531 743.339844 1013.730469 743.453125 C 1013.441406 743.570312 1013.140625 743.65625 1012.832031 743.714844 C 1012.523438 743.773438 1012.214844 743.796875 1011.902344 743.792969 C 1011.589844 743.789062 1011.28125 743.757812 1010.972656 743.691406 C 1010.667969 743.625 1010.371094 743.53125 1010.082031 743.410156 C 1009.792969 743.285156 1009.523438 743.136719 1009.261719 742.960938 C 1009.003906 742.78125 1008.765625 742.582031 1008.546875 742.359375 C 1008.328125 742.132812 1008.132812 741.890625 1007.964844 741.628906 C 1007.792969 741.367188 1007.648438 741.089844 1007.53125 740.800781 C 1007.414062 740.507812 1007.328125 740.210938 1007.269531 739.902344 C 1006.757812 737.074219 1005.914062 734.351562 1004.738281 731.730469 Z M 978.839844 709.101562 C 978.519531 709.003906 978.210938 708.875 977.921875 708.710938 C 977.628906 708.546875 977.355469 708.355469 977.105469 708.136719 C 976.851562 707.917969 976.625 707.675781 976.425781 707.40625 C 976.222656 707.140625 976.054688 706.855469 975.914062 706.550781 C 975.769531 706.246094 975.664062 705.933594 975.589844 705.605469 C 975.515625 705.28125 975.472656 704.949219 975.46875 704.617188 C 975.464844 704.28125 975.492188 703.949219 975.558594 703.621094 C 975.621094 703.292969 975.71875 702.976562 975.851562 702.667969 C 975.980469 702.363281 976.144531 702.070312 976.335938 701.796875 C 976.527344 701.523438 976.746094 701.273438 976.992188 701.046875 C 977.238281 700.816406 977.503906 700.617188 977.789062 700.445312 C 978.078125 700.273438 978.378906 700.136719 978.695312 700.027344 C 979.011719 699.917969 979.335938 699.84375 979.667969 699.804688 C 980 699.765625 980.332031 699.761719 980.664062 699.789062 C 980.996094 699.820312 981.324219 699.882812 981.640625 699.984375 C 981.960938 700.082031 982.265625 700.210938 982.558594 700.375 C 985.738281 701.691406 988.808594 703.222656 991.773438 704.972656 C 992.027344 705.136719 992.265625 705.324219 992.480469 705.535156 C 992.699219 705.746094 992.894531 705.976562 993.070312 706.222656 C 993.246094 706.472656 993.394531 706.734375 993.519531 707.011719 C 993.640625 707.285156 993.738281 707.574219 993.808594 707.867188 C 993.878906 708.164062 993.921875 708.460938 993.933594 708.765625 C 993.945312 709.066406 993.929688 709.367188 993.886719 709.667969 C 993.839844 709.96875 993.769531 710.261719 993.667969 710.546875 C 993.566406 710.832031 993.441406 711.105469 993.289062 711.367188 C 993.136719 711.628906 992.960938 711.875 992.761719 712.105469 C 992.5625 712.332031 992.34375 712.539062 992.101562 712.726562 C 991.863281 712.914062 991.609375 713.074219 991.339844 713.214844 C 991.070312 713.351562 990.789062 713.460938 990.5 713.546875 C 990.207031 713.632812 989.910156 713.6875 989.609375 713.714844 C 989.308594 713.742188 989.007812 713.742188 988.707031 713.714844 C 988.402344 713.683594 988.109375 713.625 987.816406 713.539062 C 987.527344 713.453125 987.246094 713.34375 986.976562 713.203125 C 984.335938 711.671875 981.613281 710.304688 978.808594 709.101562 Z M 942.558594 700.171875 C 942.238281 700.148438 941.921875 700.09375 941.609375 700.003906 C 941.296875 699.914062 941 699.796875 940.710938 699.644531 C 940.425781 699.496094 940.15625 699.320312 939.90625 699.117188 C 939.65625 698.914062 939.429688 698.683594 939.222656 698.433594 C 939.019531 698.183594 938.839844 697.914062 938.691406 697.628906 C 938.542969 697.34375 938.421875 697.042969 938.332031 696.734375 C 938.242188 696.421875 938.1875 696.105469 938.160156 695.785156 C 938.136719 695.460938 938.144531 695.140625 938.183594 694.820312 C 938.226562 694.496094 938.296875 694.183594 938.402344 693.878906 C 938.503906 693.570312 938.640625 693.277344 938.804688 693 C 938.96875 692.722656 939.15625 692.460938 939.375 692.222656 C 939.589844 691.980469 939.828125 691.765625 940.089844 691.574219 C 940.347656 691.382812 940.625 691.21875 940.917969 691.082031 C 941.214844 690.949219 941.515625 690.84375 941.832031 690.769531 C 942.148438 690.695312 942.464844 690.65625 942.789062 690.648438 C 943.113281 690.636719 943.433594 690.664062 943.75 690.71875 C 947.066406 691.125 950.351562 691.621094 953.546875 692.203125 C 953.855469 692.257812 954.15625 692.339844 954.445312 692.449219 C 954.738281 692.5625 955.015625 692.703125 955.277344 692.867188 C 955.542969 693.035156 955.789062 693.226562 956.015625 693.441406 C 956.242188 693.65625 956.445312 693.894531 956.625 694.148438 C 956.804688 694.402344 956.957031 694.675781 957.082031 694.960938 C 957.210938 695.246094 957.308594 695.539062 957.375 695.84375 C 957.445312 696.148438 957.484375 696.457031 957.492188 696.769531 C 957.496094 697.082031 957.476562 697.394531 957.421875 697.703125 C 957.367188 698.007812 957.285156 698.308594 957.171875 698.601562 C 957.058594 698.890625 956.921875 699.167969 956.753906 699.433594 C 956.585938 699.695312 956.394531 699.941406 956.179688 700.167969 C 955.964844 700.394531 955.726562 700.597656 955.472656 700.777344 C 955.214844 700.957031 954.945312 701.109375 954.660156 701.234375 C 954.375 701.359375 954.078125 701.457031 953.773438 701.527344 C 953.46875 701.59375 953.160156 701.632812 952.847656 701.640625 C 952.535156 701.644531 952.226562 701.621094 951.917969 701.566406 C 948.808594 701.101562 945.699219 700.578125 942.53125 700.171875 Z M 904.449219 698.019531 C 904.136719 698.019531 903.824219 697.988281 903.519531 697.929688 C 903.210938 697.867188 902.914062 697.777344 902.625 697.65625 C 902.335938 697.535156 902.058594 697.390625 901.800781 697.214844 C 901.539062 697.042969 901.296875 696.84375 901.078125 696.621094 C 900.855469 696.402344 900.65625 696.160156 900.484375 695.898438 C 900.308594 695.640625 900.164062 695.363281 900.042969 695.074219 C 899.921875 694.785156 899.832031 694.488281 899.773438 694.179688 C 899.710938 693.875 899.679688 693.5625 899.679688 693.25 C 899.679688 692.9375 899.710938 692.625 899.773438 692.320312 C 899.832031 692.011719 899.921875 691.714844 900.042969 691.425781 C 900.164062 691.136719 900.308594 690.859375 900.484375 690.601562 C 900.65625 690.339844 900.855469 690.097656 901.078125 689.875 C 901.296875 689.65625 901.539062 689.457031 901.800781 689.285156 C 902.058594 689.109375 902.335938 688.960938 902.625 688.84375 C 902.914062 688.722656 903.210938 688.632812 903.519531 688.570312 C 903.824219 688.511719 904.136719 688.480469 904.449219 688.480469 C 907.703125 688.480469 910.960938 688.480469 914.246094 688.625 C 914.574219 688.609375 914.898438 688.625 915.222656 688.675781 C 915.546875 688.726562 915.863281 688.8125 916.167969 688.929688 C 916.476562 689.042969 916.765625 689.191406 917.042969 689.367188 C 917.320312 689.542969 917.574219 689.746094 917.808594 689.972656 C 918.042969 690.203125 918.253906 690.453125 918.4375 690.726562 C 918.621094 691 918.773438 691.285156 918.898438 691.589844 C 919.019531 691.894531 919.113281 692.207031 919.171875 692.53125 C 919.230469 692.851562 919.253906 693.179688 919.246094 693.507812 C 919.238281 693.835938 919.199219 694.15625 919.125 694.476562 C 919.046875 694.796875 918.941406 695.105469 918.804688 695.402344 C 918.664062 695.699219 918.5 695.980469 918.300781 696.242188 C 918.105469 696.507812 917.886719 696.746094 917.640625 696.964844 C 917.394531 697.179688 917.128906 697.371094 916.84375 697.535156 C 916.558594 697.695312 916.261719 697.828125 915.949219 697.929688 C 915.636719 698.027344 915.316406 698.097656 914.992188 698.132812 C 914.664062 698.167969 914.339844 698.167969 914.011719 698.136719 C 910.785156 698.195312 907.585938 698.019531 904.417969 698.019531 Z M 866.019531 699.503906 C 865.699219 699.535156 865.382812 699.539062 865.0625 699.507812 C 864.746094 699.476562 864.433594 699.414062 864.125 699.320312 C 863.820312 699.226562 863.527344 699.105469 863.246094 698.949219 C 862.964844 698.796875 862.703125 698.617188 862.457031 698.414062 C 862.210938 698.207031 861.988281 697.980469 861.789062 697.730469 C 861.589844 697.480469 861.417969 697.210938 861.273438 696.925781 C 861.128906 696.640625 861.011719 696.34375 860.925781 696.035156 C 860.839844 695.726562 860.789062 695.414062 860.765625 695.09375 C 860.742188 694.773438 860.753906 694.457031 860.792969 694.140625 C 860.835938 693.820312 860.90625 693.511719 861.011719 693.207031 C 861.117188 692.90625 861.25 692.617188 861.410156 692.339844 C 861.574219 692.066406 861.761719 691.808594 861.976562 691.570312 C 862.1875 691.332031 862.425781 691.117188 862.683594 690.925781 C 862.9375 690.738281 863.210938 690.574219 863.5 690.4375 C 863.792969 690.300781 864.09375 690.195312 864.402344 690.121094 C 864.714844 690.046875 865.03125 690.003906 865.347656 689.992188 C 868.488281 689.757812 871.746094 689.554688 875.085938 689.382812 C 875.410156 689.347656 875.730469 689.34375 876.054688 689.371094 C 876.378906 689.402344 876.695312 689.464844 877.003906 689.558594 C 877.316406 689.65625 877.613281 689.78125 877.894531 689.933594 C 878.179688 690.089844 878.445312 690.273438 878.695312 690.480469 C 878.941406 690.691406 879.164062 690.925781 879.367188 691.179688 C 879.566406 691.433594 879.738281 691.707031 879.882812 692 C 880.027344 692.289062 880.140625 692.589844 880.222656 692.902344 C 880.304688 693.21875 880.355469 693.535156 880.375 693.859375 C 880.390625 694.183594 880.375 694.507812 880.328125 694.828125 C 880.28125 695.148438 880.199219 695.460938 880.089844 695.765625 C 879.976562 696.070312 879.835938 696.359375 879.664062 696.636719 C 879.496094 696.910156 879.296875 697.167969 879.074219 697.402344 C 878.851562 697.636719 878.609375 697.847656 878.34375 698.035156 C 878.074219 698.21875 877.792969 698.375 877.496094 698.503906 C 877.199219 698.632812 876.890625 698.730469 876.574219 698.792969 C 876.257812 698.859375 875.933594 698.894531 875.609375 698.890625 C 872.296875 699.066406 869.070312 699.300781 865.988281 699.503906 Z M 827.09375 702.410156 C 826.78125 702.417969 826.46875 702.394531 826.164062 702.339844 C 825.855469 702.285156 825.554688 702.199219 825.261719 702.085938 C 824.972656 701.972656 824.695312 701.832031 824.429688 701.660156 C 824.167969 701.492188 823.921875 701.300781 823.695312 701.082031 C 823.472656 700.867188 823.269531 700.628906 823.089844 700.375 C 822.910156 700.117188 822.757812 699.847656 822.632812 699.558594 C 822.507812 699.273438 822.410156 698.976562 822.34375 698.671875 C 822.273438 698.367188 822.238281 698.054688 822.230469 697.742188 C 822.222656 697.429688 822.25 697.121094 822.304688 696.8125 C 822.355469 696.503906 822.441406 696.203125 822.554688 695.910156 C 822.667969 695.621094 822.808594 695.34375 822.976562 695.078125 C 823.144531 694.816406 823.335938 694.570312 823.554688 694.34375 C 823.769531 694.117188 824.003906 693.914062 824.261719 693.734375 C 824.519531 693.554688 824.789062 693.402344 825.074219 693.277344 C 825.363281 693.148438 825.65625 693.050781 825.960938 692.984375 C 826.269531 692.917969 826.578125 692.878906 826.890625 692.871094 C 829.070312 692.871094 832.265625 692.609375 836.277344 692.261719 C 836.589844 692.234375 836.902344 692.238281 837.214844 692.277344 C 837.523438 692.3125 837.828125 692.378906 838.128906 692.472656 C 838.425781 692.570312 838.710938 692.691406 838.984375 692.84375 C 839.257812 692.996094 839.515625 693.171875 839.753906 693.375 C 839.992188 693.578125 840.210938 693.800781 840.40625 694.046875 C 840.601562 694.292969 840.769531 694.554688 840.914062 694.832031 C 841.054688 695.113281 841.171875 695.402344 841.257812 695.703125 C 841.34375 696.003906 841.398438 696.3125 841.425781 696.625 C 841.449219 696.9375 841.445312 697.246094 841.410156 697.558594 C 841.375 697.871094 841.308594 698.175781 841.214844 698.472656 C 841.117188 698.773438 840.992188 699.058594 840.839844 699.332031 C 840.691406 699.605469 840.511719 699.863281 840.308594 700.101562 C 840.109375 700.339844 839.882812 700.558594 839.636719 700.753906 C 839.394531 700.945312 839.132812 701.117188 838.851562 701.257812 C 838.574219 701.402344 838.285156 701.519531 837.984375 701.605469 C 837.683594 701.691406 837.375 701.746094 837.0625 701.773438 C 832.789062 702.207031 829.390625 702.441406 827.0625 702.5 Z M 788.167969 688.886719 C 787.882812 688.730469 787.617188 688.550781 787.367188 688.339844 C 787.121094 688.128906 786.894531 687.898438 786.695312 687.640625 C 786.496094 687.386719 786.320312 687.113281 786.175781 686.820312 C 786.03125 686.53125 785.917969 686.226562 785.835938 685.914062 C 785.753906 685.601562 785.703125 685.28125 785.683594 684.957031 C 785.667969 684.632812 785.683594 684.308594 785.730469 683.988281 C 785.777344 683.664062 785.859375 683.351562 785.972656 683.046875 C 786.082031 682.742188 786.226562 682.453125 786.398438 682.175781 C 786.570312 681.898438 786.765625 681.644531 786.992188 681.410156 C 787.214844 681.171875 787.460938 680.964844 787.726562 680.777344 C 787.992188 680.59375 788.277344 680.4375 788.574219 680.308594 C 788.875 680.179688 789.183594 680.085938 789.5 680.019531 C 789.820312 679.957031 790.140625 679.925781 790.464844 679.925781 C 790.789062 679.925781 791.113281 679.960938 791.429688 680.027344 C 791.746094 680.097656 792.054688 680.195312 792.351562 680.324219 C 792.652344 680.453125 792.933594 680.613281 793.199219 680.800781 C 795.785156 682.382812 798.457031 683.796875 801.222656 685.046875 C 801.507812 685.179688 801.777344 685.335938 802.03125 685.519531 C 802.289062 685.699219 802.523438 685.90625 802.738281 686.136719 C 802.953125 686.367188 803.144531 686.613281 803.308594 686.882812 C 803.476562 687.148438 803.613281 687.429688 803.722656 687.722656 C 803.835938 688.019531 803.914062 688.320312 803.964844 688.632812 C 804.015625 688.941406 804.039062 689.253906 804.027344 689.566406 C 804.015625 689.882812 803.976562 690.191406 803.902344 690.5 C 803.832031 690.804688 803.730469 691.101562 803.601562 691.386719 C 803.472656 691.675781 803.316406 691.945312 803.132812 692.199219 C 802.949219 692.457031 802.742188 692.691406 802.515625 692.90625 C 802.285156 693.121094 802.035156 693.3125 801.769531 693.476562 C 801.503906 693.644531 801.222656 693.78125 800.929688 693.894531 C 800.632812 694.003906 800.332031 694.085938 800.023438 694.136719 C 799.710938 694.1875 799.398438 694.207031 799.085938 694.199219 C 798.773438 694.1875 798.460938 694.144531 798.15625 694.074219 C 797.851562 694.003906 797.554688 693.902344 797.265625 693.773438 C 794.121094 692.371094 791.078125 690.769531 788.140625 688.972656 Z M 767.121094 652.964844 C 767.136719 652.652344 767.183594 652.34375 767.257812 652.039062 C 767.335938 651.738281 767.441406 651.441406 767.574219 651.160156 C 767.707031 650.875 767.867188 650.609375 768.054688 650.355469 C 768.242188 650.105469 768.449219 649.871094 768.683594 649.660156 C 768.914062 649.453125 769.164062 649.265625 769.433594 649.105469 C 769.703125 648.941406 769.984375 648.808594 770.28125 648.703125 C 770.574219 648.597656 770.878906 648.523438 771.1875 648.476562 C 771.496094 648.429688 771.808594 648.414062 772.121094 648.429688 C 772.433594 648.445312 772.742188 648.492188 773.046875 648.566406 C 773.351562 648.640625 773.644531 648.746094 773.929688 648.882812 C 774.210938 649.015625 774.480469 649.175781 774.730469 649.363281 C 774.984375 649.550781 775.214844 649.757812 775.425781 649.992188 C 775.636719 650.222656 775.820312 650.472656 775.984375 650.742188 C 776.144531 651.011719 776.277344 651.292969 776.382812 651.589844 C 776.488281 651.882812 776.5625 652.1875 776.609375 652.496094 C 776.65625 652.808594 776.671875 653.117188 776.65625 653.433594 C 776.496094 656.203125 776.746094 658.9375 777.414062 661.632812 C 777.492188 661.9375 777.539062 662.246094 777.554688 662.558594 C 777.574219 662.875 777.558594 663.183594 777.515625 663.496094 C 777.472656 663.804688 777.398438 664.109375 777.292969 664.40625 C 777.1875 664.703125 777.054688 664.984375 776.898438 665.253906 C 776.738281 665.523438 776.550781 665.777344 776.34375 666.011719 C 776.132812 666.242188 775.902344 666.453125 775.652344 666.644531 C 775.402344 666.832031 775.132812 666.992188 774.851562 667.128906 C 774.566406 667.261719 774.273438 667.371094 773.96875 667.445312 C 773.667969 667.523438 773.359375 667.570312 773.042969 667.589844 C 772.730469 667.605469 772.417969 667.589844 772.109375 667.546875 C 771.796875 667.5 771.496094 667.425781 771.199219 667.320312 C 770.90625 667.214844 770.621094 667.082031 770.351562 666.921875 C 770.082031 666.761719 769.832031 666.578125 769.597656 666.367188 C 769.367188 666.15625 769.15625 665.925781 768.96875 665.675781 C 768.78125 665.421875 768.621094 665.15625 768.484375 664.871094 C 768.351562 664.589844 768.246094 664.292969 768.167969 663.988281 C 767.269531 660.398438 766.914062 656.753906 767.09375 653.054688 Z M 782.761719 615.15625 C 782.9375 614.894531 783.140625 614.652344 783.367188 614.429688 C 783.59375 614.207031 783.839844 614.007812 784.105469 613.835938 C 784.371094 613.660156 784.648438 613.515625 784.945312 613.398438 C 785.238281 613.28125 785.539062 613.195312 785.851562 613.136719 C 786.164062 613.082031 786.476562 613.054688 786.796875 613.0625 C 787.113281 613.066406 787.425781 613.101562 787.734375 613.171875 C 788.042969 613.238281 788.34375 613.335938 788.632812 613.464844 C 788.921875 613.59375 789.199219 613.75 789.457031 613.933594 C 789.714844 614.113281 789.953125 614.320312 790.171875 614.550781 C 790.390625 614.78125 790.582031 615.03125 790.75 615.300781 C 790.917969 615.570312 791.058594 615.851562 791.171875 616.148438 C 791.28125 616.445312 791.363281 616.75 791.414062 617.0625 C 791.464844 617.375 791.484375 617.691406 791.472656 618.007812 C 791.460938 618.324219 791.417969 618.636719 791.34375 618.945312 C 791.269531 619.253906 791.167969 619.550781 791.035156 619.839844 C 790.898438 620.125 790.738281 620.398438 790.550781 620.652344 C 788.691406 623.269531 787.003906 625.859375 785.464844 628.476562 C 785.304688 628.746094 785.121094 629 784.910156 629.230469 C 784.699219 629.464844 784.46875 629.675781 784.21875 629.863281 C 783.96875 630.050781 783.699219 630.214844 783.417969 630.347656 C 783.136719 630.484375 782.839844 630.589844 782.539062 630.667969 C 782.234375 630.746094 781.925781 630.792969 781.613281 630.808594 C 781.296875 630.824219 780.984375 630.8125 780.675781 630.765625 C 780.367188 630.722656 780.0625 630.648438 779.765625 630.542969 C 779.472656 630.4375 779.1875 630.304688 778.917969 630.144531 C 778.648438 629.984375 778.398438 629.796875 778.164062 629.585938 C 777.933594 629.375 777.722656 629.144531 777.535156 628.894531 C 777.347656 628.640625 777.1875 628.375 777.050781 628.089844 C 776.917969 627.808594 776.8125 627.515625 776.734375 627.210938 C 776.65625 626.90625 776.613281 626.597656 776.59375 626.28125 C 776.578125 625.96875 776.59375 625.65625 776.640625 625.347656 C 776.6875 625.035156 776.761719 624.734375 776.867188 624.4375 C 776.972656 624.140625 777.105469 623.859375 777.265625 623.589844 C 778.894531 620.828125 780.726562 618.007812 782.730469 615.183594 Z M 808.925781 585.257812 C 809.152344 585.058594 809.394531 584.882812 809.65625 584.734375 C 809.917969 584.582031 810.1875 584.457031 810.472656 584.355469 C 810.757812 584.257812 811.046875 584.1875 811.34375 584.140625 C 811.644531 584.097656 811.941406 584.082031 812.242188 584.09375 C 812.542969 584.105469 812.839844 584.144531 813.132812 584.214844 C 813.425781 584.28125 813.710938 584.378906 813.984375 584.5 C 814.261719 584.621094 814.523438 584.769531 814.769531 584.941406 C 815.015625 585.113281 815.246094 585.308594 815.457031 585.523438 C 815.667969 585.738281 815.855469 585.972656 816.019531 586.222656 C 816.1875 586.472656 816.328125 586.738281 816.445312 587.015625 C 816.5625 587.292969 816.652344 587.578125 816.714844 587.875 C 816.777344 588.167969 816.808594 588.464844 816.816406 588.765625 C 816.820312 589.070312 816.796875 589.367188 816.746094 589.664062 C 816.695312 589.960938 816.617188 590.25 816.511719 590.53125 C 816.40625 590.816406 816.277344 591.085938 816.121094 591.339844 C 815.964844 591.597656 815.785156 591.839844 815.582031 592.0625 C 813.285156 594.332031 811.074219 596.597656 808.894531 598.867188 C 808.679688 599.09375 808.441406 599.296875 808.1875 599.480469 C 807.929688 599.660156 807.65625 599.8125 807.371094 599.9375 C 807.082031 600.066406 806.785156 600.164062 806.480469 600.230469 C 806.175781 600.300781 805.863281 600.335938 805.550781 600.34375 C 805.238281 600.351562 804.925781 600.328125 804.617188 600.273438 C 804.308594 600.21875 804.007812 600.132812 803.714844 600.019531 C 803.425781 599.90625 803.144531 599.765625 802.882812 599.597656 C 802.617188 599.429688 802.371094 599.234375 802.144531 599.019531 C 801.917969 598.800781 801.714844 598.566406 801.535156 598.308594 C 801.355469 598.050781 801.203125 597.777344 801.078125 597.492188 C 800.953125 597.203125 800.855469 596.90625 800.785156 596.601562 C 800.71875 596.296875 800.683594 595.984375 800.675781 595.671875 C 800.667969 595.359375 800.695312 595.046875 800.75 594.738281 C 800.804688 594.429688 800.886719 594.128906 801 593.835938 C 801.117188 593.542969 801.257812 593.265625 801.425781 593 C 801.59375 592.738281 801.789062 592.492188 802.003906 592.265625 C 804.15625 589.96875 806.367188 587.671875 808.75 585.285156 Z M 838.167969 559.078125 C 838.40625 558.859375 838.664062 558.667969 838.945312 558.5 C 839.222656 558.335938 839.511719 558.199219 839.820312 558.09375 C 840.125 557.984375 840.4375 557.910156 840.757812 557.867188 C 841.082031 557.824219 841.402344 557.816406 841.726562 557.835938 C 842.046875 557.859375 842.367188 557.914062 842.675781 558.003906 C 842.988281 558.089844 843.289062 558.207031 843.578125 558.355469 C 843.863281 558.503906 844.132812 558.683594 844.386719 558.886719 C 844.636719 559.089844 844.867188 559.316406 845.074219 559.566406 C 845.277344 559.816406 845.457031 560.085938 845.609375 560.371094 C 845.757812 560.660156 845.878906 560.957031 845.96875 561.269531 C 846.058594 561.578125 846.117188 561.898438 846.144531 562.21875 C 846.167969 562.542969 846.160156 562.863281 846.121094 563.1875 C 846.082031 563.507812 846.007812 563.820312 845.90625 564.128906 C 845.800781 564.4375 845.667969 564.730469 845.503906 565.007812 C 845.339844 565.289062 845.148438 565.546875 844.933594 565.789062 C 844.714844 566.03125 844.476562 566.246094 844.214844 566.4375 C 841.746094 568.472656 839.273438 570.539062 836.859375 572.605469 C 836.625 572.824219 836.371094 573.019531 836.097656 573.1875 C 835.820312 573.355469 835.535156 573.496094 835.230469 573.605469 C 834.929688 573.714844 834.617188 573.792969 834.300781 573.839844 C 833.980469 573.886719 833.660156 573.902344 833.339844 573.882812 C 833.015625 573.867188 832.699219 573.816406 832.390625 573.734375 C 832.078125 573.652344 831.777344 573.539062 831.488281 573.394531 C 831.199219 573.253906 830.929688 573.082031 830.675781 572.886719 C 830.421875 572.6875 830.191406 572.464844 829.980469 572.222656 C 829.769531 571.976562 829.589844 571.714844 829.433594 571.429688 C 829.277344 571.148438 829.152344 570.855469 829.054688 570.546875 C 828.957031 570.238281 828.894531 569.925781 828.859375 569.605469 C 828.828125 569.285156 828.828125 568.964844 828.859375 568.644531 C 828.890625 568.324219 828.957031 568.007812 829.050781 567.703125 C 829.148438 567.394531 829.273438 567.101562 829.429688 566.816406 C 829.582031 566.535156 829.765625 566.273438 829.976562 566.027344 C 830.183594 565.78125 830.414062 565.558594 830.667969 565.363281 C 832.964844 563.355469 835.496094 561.261719 837.996094 559.195312 Z M 868.953125 535.316406 C 869.207031 535.121094 869.476562 534.949219 869.761719 534.808594 C 870.046875 534.667969 870.34375 534.554688 870.652344 534.472656 C 870.960938 534.390625 871.277344 534.339844 871.59375 534.320312 C 871.914062 534.300781 872.230469 534.3125 872.546875 534.355469 C 872.863281 534.402344 873.171875 534.476562 873.472656 534.585938 C 873.773438 534.691406 874.0625 534.828125 874.335938 534.992188 C 874.609375 535.15625 874.863281 535.34375 875.101562 535.5625 C 875.335938 535.777344 875.546875 536.015625 875.734375 536.273438 C 875.925781 536.53125 876.085938 536.804688 876.21875 537.097656 C 876.351562 537.386719 876.453125 537.6875 876.523438 538 C 876.597656 538.308594 876.636719 538.625 876.648438 538.945312 C 876.65625 539.265625 876.632812 539.582031 876.578125 539.894531 C 876.523438 540.210938 876.4375 540.519531 876.324219 540.816406 C 876.207031 541.113281 876.0625 541.394531 875.890625 541.664062 C 875.714844 541.933594 875.519531 542.183594 875.296875 542.410156 C 875.070312 542.640625 874.828125 542.84375 874.5625 543.023438 L 866.800781 548.839844 C 866.550781 549.03125 866.285156 549.199219 866.003906 549.335938 C 865.722656 549.476562 865.425781 549.585938 865.125 549.667969 C 864.820312 549.75 864.507812 549.800781 864.195312 549.820312 C 863.882812 549.839844 863.566406 549.828125 863.253906 549.789062 C 862.941406 549.746094 862.636719 549.675781 862.339844 549.574219 C 862.042969 549.472656 861.757812 549.339844 861.484375 549.183594 C 861.210938 549.023438 860.957031 548.84375 860.722656 548.632812 C 860.484375 548.425781 860.269531 548.195312 860.078125 547.945312 C 859.886719 547.695312 859.722656 547.429688 859.585938 547.144531 C 859.445312 546.863281 859.335938 546.566406 859.257812 546.261719 C 859.175781 545.957031 859.125 545.648438 859.105469 545.335938 C 859.085938 545.019531 859.097656 544.707031 859.140625 544.394531 C 859.183594 544.082031 859.253906 543.777344 859.355469 543.480469 C 859.460938 543.179688 859.589844 542.894531 859.75 542.625 C 859.90625 542.351562 860.089844 542.097656 860.300781 541.859375 C 860.507812 541.625 860.738281 541.410156 860.988281 541.222656 C 863.722656 539.15625 866.367188 537.207031 868.953125 535.316406 Z M 900.929688 513.09375 C 901.191406 512.902344 901.46875 512.738281 901.761719 512.601562 C 902.054688 512.464844 902.359375 512.359375 902.671875 512.285156 C 902.988281 512.210938 903.308594 512.167969 903.628906 512.160156 C 903.953125 512.148438 904.273438 512.171875 904.59375 512.230469 C 904.914062 512.285156 905.222656 512.371094 905.523438 512.492188 C 905.824219 512.609375 906.109375 512.757812 906.378906 512.9375 C 906.652344 513.113281 906.902344 513.316406 907.128906 513.542969 C 907.359375 513.773438 907.5625 514.023438 907.742188 514.292969 C 907.921875 514.5625 908.070312 514.847656 908.191406 515.148438 C 908.3125 515.445312 908.402344 515.757812 908.460938 516.074219 C 908.519531 516.394531 908.542969 516.714844 908.535156 517.039062 C 908.527344 517.363281 908.488281 517.679688 908.414062 517.996094 C 908.34375 518.3125 908.238281 518.617188 908.105469 518.910156 C 907.96875 519.207031 907.808594 519.484375 907.617188 519.746094 C 907.425781 520.007812 907.210938 520.246094 906.96875 520.460938 C 906.730469 520.679688 906.472656 520.871094 906.191406 521.035156 L 898.167969 526.386719 C 897.914062 526.566406 897.640625 526.714844 897.355469 526.839844 C 897.066406 526.964844 896.769531 527.058594 896.464844 527.125 C 896.160156 527.191406 895.851562 527.222656 895.539062 527.226562 C 895.226562 527.230469 894.914062 527.203125 894.609375 527.144531 C 894.300781 527.085938 894.003906 527 893.710938 526.882812 C 893.421875 526.765625 893.148438 526.621094 892.886719 526.445312 C 892.625 526.273438 892.386719 526.078125 892.164062 525.855469 C 891.941406 525.636719 891.742188 525.398438 891.570312 525.136719 C 891.394531 524.878906 891.242188 524.605469 891.121094 524.316406 C 891 524.027344 890.90625 523.730469 890.839844 523.421875 C 890.777344 523.117188 890.742188 522.808594 890.738281 522.492188 C 890.738281 522.179688 890.765625 521.871094 890.820312 521.5625 C 890.878906 521.253906 890.96875 520.953125 891.085938 520.664062 C 891.203125 520.375 891.34375 520.097656 891.515625 519.835938 C 891.6875 519.570312 891.882812 519.328125 892.101562 519.105469 C 892.324219 518.882812 892.5625 518.679688 892.820312 518.503906 Z M 929.738281 494.742188 C 930.007812 494.582031 930.289062 494.445312 930.582031 494.339844 C 930.878906 494.234375 931.179688 494.15625 931.488281 494.109375 C 931.796875 494.0625 932.109375 494.046875 932.421875 494.0625 C 932.734375 494.078125 933.042969 494.121094 933.347656 494.195312 C 933.652344 494.273438 933.945312 494.375 934.226562 494.507812 C 934.511719 494.640625 934.78125 494.800781 935.03125 494.988281 C 935.285156 495.171875 935.515625 495.382812 935.726562 495.613281 C 935.9375 495.84375 936.125 496.09375 936.285156 496.363281 C 936.449219 496.628906 936.582031 496.910156 936.691406 497.207031 C 936.796875 497.5 936.875 497.800781 936.921875 498.109375 C 936.96875 498.421875 936.984375 498.730469 936.972656 499.046875 C 936.957031 499.359375 936.914062 499.667969 936.839844 499.96875 C 936.765625 500.273438 936.660156 500.570312 936.527344 500.851562 C 936.394531 501.136719 936.238281 501.40625 936.050781 501.65625 C 935.867188 501.910156 935.660156 502.140625 935.429688 502.355469 C 935.199219 502.566406 934.949219 502.753906 934.679688 502.914062 C 933.894531 503.378906 932.5 504.222656 930.582031 505.445312 C 930.316406 505.609375 930.035156 505.746094 929.738281 505.855469 C 929.445312 505.964844 929.144531 506.042969 928.835938 506.09375 C 928.523438 506.140625 928.214844 506.160156 927.898438 506.148438 C 927.585938 506.136719 927.277344 506.09375 926.972656 506.023438 C 926.667969 505.949219 926.371094 505.847656 926.085938 505.714844 C 925.800781 505.585938 925.53125 505.425781 925.277344 505.242188 C 925.023438 505.058594 924.792969 504.851562 924.578125 504.621094 C 924.363281 504.390625 924.175781 504.140625 924.011719 503.875 C 923.847656 503.609375 923.710938 503.328125 923.601562 503.03125 C 923.492188 502.738281 923.414062 502.4375 923.367188 502.125 C 923.316406 501.816406 923.296875 501.503906 923.308594 501.191406 C 923.320312 500.878906 923.363281 500.570312 923.4375 500.261719 C 923.507812 499.957031 923.613281 499.664062 923.742188 499.378906 C 923.875 499.09375 924.03125 498.824219 924.214844 498.570312 C 924.398438 498.316406 924.605469 498.082031 924.835938 497.867188 C 925.066406 497.65625 925.316406 497.464844 925.582031 497.300781 Z M 929.738281 494.742188 " fill-opacity="1" fill-rule="evenodd"/><path fill="#01012d" d="M 562.703125 943.414062 C 556.015625 956.238281 535.113281 995.59375 522.964844 1011.09375 C 509.097656 994.078125 497.351562 978.460938 491.507812 966.796875 C 490.183594 965.164062 489.007812 963.429688 487.976562 961.597656 C 486.945312 959.761719 486.078125 957.855469 485.375 955.875 C 484.667969 953.890625 484.136719 951.867188 483.773438 949.792969 C 483.414062 947.722656 483.230469 945.632812 483.226562 943.53125 C 483.273438 942.257812 483.382812 940.992188 483.550781 939.734375 C 483.722656 938.472656 483.953125 937.226562 484.242188 935.988281 C 484.53125 934.75 484.878906 933.527344 485.285156 932.324219 C 485.691406 931.117188 486.15625 929.9375 486.675781 928.777344 C 487.195312 927.617188 487.769531 926.484375 488.394531 925.378906 C 489.023438 924.273438 489.703125 923.199219 490.433594 922.160156 C 491.167969 921.121094 491.945312 920.117188 492.773438 919.152344 C 493.597656 918.1875 494.46875 917.265625 495.386719 916.382812 C 496.300781 915.5 497.257812 914.664062 498.253906 913.875 C 499.25 913.085938 500.28125 912.34375 501.347656 911.652344 C 502.414062 910.960938 503.507812 910.324219 504.636719 909.738281 C 505.765625 909.152344 506.917969 908.621094 508.097656 908.148438 C 509.273438 907.671875 510.472656 907.253906 511.691406 906.894531 C 512.910156 906.53125 514.144531 906.230469 515.390625 905.988281 C 516.640625 905.746094 517.894531 905.566406 519.160156 905.445312 C 520.425781 905.324219 521.691406 905.261719 522.964844 905.261719 C 524.234375 905.261719 525.5 905.324219 526.765625 905.445312 C 528.03125 905.566406 529.289062 905.746094 530.535156 905.988281 C 531.78125 906.230469 533.015625 906.53125 534.234375 906.894531 C 535.453125 907.253906 536.652344 907.671875 537.828125 908.148438 C 539.007812 908.621094 540.160156 909.152344 541.289062 909.738281 C 542.417969 910.324219 543.515625 910.960938 544.582031 911.652344 C 545.648438 912.34375 546.679688 913.085938 547.671875 913.875 C 548.667969 914.664062 549.625 915.5 550.539062 916.382812 C 551.457031 917.265625 552.328125 918.1875 553.15625 919.152344 C 553.980469 920.117188 554.761719 921.121094 555.492188 922.160156 C 556.222656 923.199219 556.902344 924.273438 557.53125 925.378906 C 558.160156 926.484375 558.734375 927.617188 559.253906 928.777344 C 559.773438 929.9375 560.234375 931.117188 560.640625 932.324219 C 561.046875 933.527344 561.394531 934.75 561.683594 935.988281 C 561.976562 937.226562 562.203125 938.472656 562.375 939.734375 C 562.542969 940.992188 562.652344 942.257812 562.703125 943.53125 " fill-opacity="1" fill-rule="evenodd"/><path fill="#cfcfff" d="M 522.964844 916.335938 C 523.648438 916.320312 524.335938 916.335938 525.019531 916.386719 C 525.703125 916.4375 526.382812 916.523438 527.058594 916.640625 C 527.734375 916.761719 528.402344 916.914062 529.0625 917.097656 C 529.722656 917.28125 530.375 917.5 531.011719 917.746094 C 531.652344 917.996094 532.277344 918.277344 532.890625 918.585938 C 533.5 918.898438 534.097656 919.238281 534.675781 919.605469 C 535.253906 919.976562 535.8125 920.371094 536.351562 920.796875 C 536.890625 921.222656 537.40625 921.671875 537.902344 922.148438 C 538.394531 922.625 538.867188 923.121094 539.3125 923.644531 C 539.757812 924.167969 540.175781 924.710938 540.566406 925.273438 C 540.957031 925.835938 541.320312 926.417969 541.65625 927.015625 C 541.992188 927.617188 542.292969 928.230469 542.570312 928.859375 C 542.84375 929.488281 543.085938 930.128906 543.296875 930.785156 C 543.503906 931.4375 543.683594 932.097656 543.828125 932.769531 C 543.972656 933.441406 544.085938 934.117188 544.164062 934.800781 C 544.242188 935.480469 544.285156 936.164062 544.296875 936.851562 C 544.308594 937.539062 544.285156 938.222656 544.230469 938.90625 C 544.171875 939.589844 544.082031 940.269531 543.957031 940.945312 C 543.835938 941.621094 543.679688 942.289062 543.488281 942.949219 C 543.296875 943.609375 543.078125 944.257812 542.824219 944.894531 C 542.570312 945.53125 542.285156 946.15625 541.96875 946.765625 C 541.65625 947.375 541.308594 947.96875 540.9375 948.542969 C 540.5625 949.117188 540.160156 949.675781 539.734375 950.210938 C 539.304688 950.746094 538.851562 951.261719 538.371094 951.75 C 537.890625 952.242188 537.390625 952.707031 536.863281 953.148438 C 536.339844 953.589844 535.792969 954.007812 535.226562 954.394531 C 534.660156 954.78125 534.078125 955.140625 533.476562 955.46875 C 532.875 955.800781 532.257812 956.101562 531.625 956.367188 C 530.996094 956.636719 530.351562 956.875 529.699219 957.082031 C 529.042969 957.285156 528.378906 957.457031 527.707031 957.597656 C 527.039062 957.738281 526.359375 957.84375 525.679688 957.917969 C 524.996094 957.992188 524.3125 958.03125 523.625 958.035156 C 522.941406 958.042969 522.253906 958.015625 521.570312 957.953125 C 520.890625 957.890625 520.210938 957.792969 519.535156 957.664062 C 518.863281 957.535156 518.195312 957.375 517.539062 957.179688 C 516.882812 956.984375 516.234375 956.757812 515.597656 956.5 C 514.964844 956.238281 514.34375 955.949219 513.734375 955.628906 C 513.128906 955.308594 512.539062 954.960938 511.96875 954.582031 C 511.394531 954.203125 510.84375 953.796875 510.308594 953.363281 C 509.777344 952.933594 509.269531 952.472656 508.78125 951.992188 C 508.292969 951.507812 507.832031 951 507.394531 950.472656 C 506.957031 949.941406 506.546875 949.394531 506.164062 948.824219 C 505.78125 948.253906 505.425781 947.667969 505.101562 947.0625 C 504.777344 946.460938 504.484375 945.839844 504.21875 945.207031 C 503.953125 944.574219 503.722656 943.929688 503.523438 943.273438 C 503.320312 942.613281 503.15625 941.949219 503.019531 941.277344 C 502.886719 940.605469 502.785156 939.925781 502.714844 939.242188 C 502.648438 938.558594 502.613281 937.875 502.613281 937.1875 C 502.605469 936.515625 502.632812 935.839844 502.691406 935.167969 C 502.75 934.496094 502.839844 933.828125 502.964844 933.164062 C 503.089844 932.5 503.242188 931.847656 503.433594 931.199219 C 503.621094 930.550781 503.839844 929.914062 504.089844 929.285156 C 504.339844 928.660156 504.621094 928.046875 504.933594 927.449219 C 505.246094 926.847656 505.585938 926.265625 505.953125 925.703125 C 506.320312 925.136719 506.714844 924.589844 507.136719 924.0625 C 507.558594 923.535156 508.003906 923.03125 508.476562 922.550781 C 508.945312 922.066406 509.441406 921.609375 509.957031 921.171875 C 510.472656 920.738281 511.007812 920.332031 511.566406 919.949219 C 512.121094 919.566406 512.695312 919.214844 513.285156 918.886719 C 513.878906 918.5625 514.480469 918.265625 515.101562 918 C 515.722656 917.734375 516.355469 917.5 516.996094 917.296875 C 517.640625 917.09375 518.289062 916.921875 518.949219 916.78125 C 519.609375 916.640625 520.277344 916.535156 520.945312 916.460938 C 521.617188 916.382812 522.289062 916.34375 522.964844 916.335938 Z M 522.964844 916.335938 " fill-opacity="1" fill-rule="evenodd"/><g clip-path="url(#52a59e5c9d)"><path fill="#01012d" d="M 522.964844 1020.519531 C 523.9375 1020.5 524.90625 1020.578125 525.863281 1020.753906 C 526.824219 1020.929688 527.757812 1021.195312 528.664062 1021.554688 C 529.570312 1021.910156 530.433594 1022.355469 531.253906 1022.886719 C 532.074219 1023.414062 532.832031 1024.019531 533.53125 1024.699219 C 534.230469 1025.378906 534.859375 1026.121094 535.410156 1026.925781 C 535.964844 1027.726562 536.433594 1028.578125 536.820312 1029.472656 C 537.203125 1030.371094 537.496094 1031.296875 537.699219 1032.25 C 537.902344 1033.203125 538.007812 1034.167969 538.019531 1035.144531 C 538.03125 1036.121094 537.949219 1037.089844 537.769531 1038.046875 C 537.589844 1039.007812 537.316406 1039.9375 536.953125 1040.84375 C 536.589844 1041.75 536.140625 1042.609375 535.605469 1043.425781 C 535.074219 1044.242188 534.464844 1045 533.78125 1045.695312 C 533.097656 1046.390625 532.351562 1047.015625 531.546875 1047.5625 C 530.738281 1048.109375 529.886719 1048.574219 528.988281 1048.957031 C 528.089844 1049.335938 527.164062 1049.625 526.210938 1049.820312 C 525.253906 1050.019531 524.289062 1050.117188 523.3125 1050.125 C 522.339844 1050.128906 521.371094 1050.039062 520.414062 1049.855469 C 519.457031 1049.671875 518.527344 1049.394531 517.625 1049.023438 C 516.722656 1048.65625 515.863281 1048.199219 515.050781 1047.660156 C 514.238281 1047.121094 513.484375 1046.507812 512.792969 1045.820312 C 512.101562 1045.132812 511.484375 1044.382812 510.941406 1043.574219 C 510.398438 1042.765625 509.9375 1041.910156 509.5625 1041.007812 C 509.1875 1040.105469 508.90625 1039.179688 508.714844 1038.222656 C 508.523438 1037.265625 508.429688 1036.296875 508.429688 1035.324219 C 508.410156 1034.355469 508.488281 1033.398438 508.664062 1032.449219 C 508.835938 1031.5 509.101562 1030.574219 509.457031 1029.675781 C 509.816406 1028.78125 510.257812 1027.925781 510.785156 1027.117188 C 511.3125 1026.308594 511.914062 1025.558594 512.59375 1024.871094 C 513.269531 1024.179688 514.007812 1023.566406 514.804688 1023.023438 C 515.605469 1022.480469 516.449219 1022.023438 517.339844 1021.648438 C 518.230469 1021.277344 519.148438 1020.996094 520.09375 1020.804688 C 521.042969 1020.613281 521.996094 1020.519531 522.964844 1020.519531 Z M 522.964844 1020.519531 " fill-opacity="1" fill-rule="evenodd"/></g></svg>